<?xml version="1.0" encoding="UTF-8" standalone="no"?>
<!-- Created with Inkscape (http://www.inkscape.org/) -->

<svg
   xmlns:dc="http://purl.org/dc/elements/1.1/"
   xmlns:cc="http://creativecommons.org/ns#"
   xmlns:rdf="http://www.w3.org/1999/02/22-rdf-syntax-ns#"
   xmlns:svg="http://www.w3.org/2000/svg"
   xmlns="http://www.w3.org/2000/svg"
   xmlns:sodipodi="http://sodipodi.sourceforge.net/DTD/sodipodi-0.dtd"
   xmlns:inkscape="http://www.inkscape.org/namespaces/inkscape"
   width="600mm"
   height="300mm"
   viewBox="0 0 2125.9843 1062.9921"
   id="svg2"
   version="1.1"
   inkscape:version="0.92.2 5c3e80d, 2017-08-06"
   sodipodi:docname="tuerkitsch.svg">
  <defs
     id="defs4" />
  <sodipodi:namedview
     id="base"
     pagecolor="#ffffff"
     bordercolor="#666666"
     borderopacity="1.0"
     inkscape:pageopacity="0.0"
     inkscape:pageshadow="2"
     inkscape:zoom="1.4731228"
     inkscape:cx="211.05377"
     inkscape:cy="940.51222"
     inkscape:document-units="mm"
     inkscape:current-layer="layer1"
     showgrid="false"
     units="mm"
     width="600in"
     inkscape:window-width="1280"
     inkscape:window-height="718"
     inkscape:window-x="0"
     inkscape:window-y="1"
     inkscape:window-maximized="1"
     inkscape:snap-global="false"
     objecttolerance="10000"
     guidetolerance="10000"
     inkscape:snap-perpendicular="true"
     inkscape:snap-tangential="true" />
  <metadata
     id="metadata7">
    <rdf:RDF>
      <cc:Work
         rdf:about="">
        <dc:format>image/svg+xml</dc:format>
        <dc:type
           rdf:resource="http://purl.org/dc/dcmitype/StillImage" />
        <dc:title></dc:title>
      </cc:Work>
    </rdf:RDF>
  </metadata>
  <g
     inkscape:label="Ebene 1"
     inkscape:groupmode="layer"
     id="layer1"
     transform="translate(0,10.627034)">
    <path
       style="opacity:0.98999999;fill:none;fill-opacity:1;stroke:#ff0000;stroke-width:1.77165353;stroke-miterlimit:4;stroke-dasharray:none;stroke-dashoffset:0;stroke-opacity:1"
       id="path7436"
       sodipodi:type="arc"
       sodipodi:cx="281.87387"
       sodipodi:cy="160.99281"
       sodipodi:rx="22.838829"
       sodipodi:ry="22.838829"
       sodipodi:start="0.28797933"
       sodipodi:end="2.8274334"
       d="m 303.77219,167.47939 a 22.838829,22.838829 0 0 1 -21.59937,16.3503 22.838829,22.838829 0 0 1 -22.01997,-15.77929"
       sodipodi:open="true" />
    <text
       xml:space="preserve"
       style="font-style:normal;font-variant:normal;font-weight:normal;font-stretch:normal;font-size:9.01468086px;line-height:125%;font-family:Minecrafter;-inkscape-font-specification:'Minecrafter, Normal';text-align:start;letter-spacing:0px;word-spacing:0px;writing-mode:lr-tb;text-anchor:start;fill:#ff0000;fill-opacity:1;stroke:none;stroke-width:0.46527386px;stroke-linecap:butt;stroke-linejoin:miter;stroke-opacity:1"
       x="-310.26434"
       y="165.10832"
       id="text7440"
       transform="scale(-1,1)"><tspan
         sodipodi:role="line"
         id="tspan7438"
         x="-310.26434"
         y="165.10832"
         style="font-style:normal;font-variant:normal;font-weight:bold;font-stretch:normal;font-size:9.01452541px;font-family:'.Beirut PUA';-inkscape-font-specification:'.Beirut PUA, Bold';font-variant-ligatures:normal;font-variant-caps:normal;font-variant-numeric:normal;font-feature-settings:normal;text-align:start;writing-mode:lr-tb;text-anchor:start;fill:#ff0000;stroke-width:0.46527386px">TÜRKITSCH</tspan></text>
    <circle
       style="opacity:0.98999999;fill:none;fill-opacity:1;stroke:#ff0000;stroke-width:1.77165353;stroke-miterlimit:4;stroke-dasharray:none;stroke-dashoffset:0;stroke-opacity:1"
       id="path7489"
       d="m 259.89794,154.77425 a 22.838829,22.838829 0 0 1 21.83642,-16.61984 22.838829,22.838829 0 0 1 22.03783,16.35183"
       sodipodi:type="arc"
       sodipodi:open="true"
       sodipodi:start="3.4173547"
       sodipodi:end="5.995206"
       sodipodi:ry="22.838829"
       sodipodi:rx="22.838829"
       sodipodi:cy="160.99281"
       sodipodi:cx="281.87387" />
    <path
       style="opacity:0.91500005;fill:#00000c;fill-opacity:1;stroke:none;stroke-width:1.95640385;stroke-miterlimit:4;stroke-dasharray:none;stroke-dashoffset:0;stroke-opacity:1"
       d="M 37.21898,-8.9817494 A 33.661419,33.661419 0 0 0 3.5586993,24.68036 33.661419,33.661419 0 0 0 37.21898,58.342472 33.661419,33.661419 0 0 0 70.881089,24.68036 33.661419,33.661419 0 0 0 37.21898,-8.9817494 Z M 37.116436,0.95538476 C 47.673465,0.89089416 57.009877,7.8195985 60.008283,17.942078 l -1.699219,0.503541 C 55.532386,9.0717207 46.901911,2.6681251 37.125596,2.7278457 27.34928,2.7875664 18.798155,9.2948447 16.136209,18.701966 L 14.433334,18.220399 C 17.307859,8.0620426 26.559399,1.0198745 37.116436,0.95538476 Z M 54.526102,20.437806 h 1.03455 v 1.082153 h -1.03455 z m 1.739503,0 h 1.03455 v 1.082153 h -1.03455 z m -38.06579,1.66809 c 1.094531,0 1.962225,0.305897 2.601928,0.91919 0.639703,0.610359 0.959466,1.441545 0.959466,2.492065 0,1.047587 -0.319763,1.876942 -0.959466,2.490235 -0.639703,0.610358 -1.507397,0.915528 -2.601928,0.915528 -0.366806,0 -0.719063,-0.04052 -1.056525,-0.122681 -0.337453,-0.08216 -0.661238,-0.202987 -0.972291,-0.36438 V 27.07538 c 0.313988,0.214212 0.623166,0.37081 0.92835,0.47058 0.305175,0.09977 0.627525,0.150147 0.96496,0.150147 0.60449,0 1.080131,-0.194933 1.426396,-0.582276 0.346257,-0.387342 0.518185,-0.91883 0.518185,-1.59668 0,-0.680784 -0.171928,-1.214829 -0.518185,-1.602172 -0.346265,-0.387343 -0.821906,-0.582276 -1.426396,-0.582276 -0.337435,0 -0.659785,0.05038 -0.96496,0.150147 -0.305184,0.09977 -0.614362,0.256368 -0.92835,0.470581 v -1.358642 c 0.311053,-0.161394 0.634838,-0.284048 0.972291,-0.366211 0.337462,-0.08216 0.689719,-0.122682 1.056525,-0.122682 z m 7.404778,0 c 0.7923,0 1.39935,0.175216 1.8219,0.527344 0.422559,0.352131 0.633544,0.856246 0.633544,1.510621 0,0.522325 -0.151857,0.937003 -0.454097,1.245117 -0.305185,0.308113 -0.78556,0.532977 -1.442869,0.673828 l -0.655519,0.144653 c -0.399084,0.08803 -0.664462,0.188785 -0.796509,0.300293 -0.134981,0.111508 -0.20325,0.268834 -0.20325,0.474243 0,0.228885 0.09821,0.40593 0.294797,0.529176 0.196612,0.123243 0.479878,0.184936 0.849618,0.184936 0.363844,0 0.742041,-0.05695 1.135247,-0.168457 0.390282,-0.114442 0.7962,-0.282356 1.215825,-0.505371 v 1.430054 c -0.419625,0.155523 -0.84015,0.272333 -1.259765,0.351562 -0.419625,0.07923 -0.837591,0.119019 -1.254272,0.119019 -0.883266,0 -1.538128,-0.175214 -1.966556,-0.527344 -0.431363,-0.355064 -0.648197,-0.895683 -0.648197,-1.620484 0,-0.55167 0.155165,-0.976934 0.463256,-1.276245 0.308119,-0.29931 0.827559,-0.521614 1.558228,-0.668335 l 0.721444,-0.146485 c 0.343322,-0.07042 0.580228,-0.154018 0.712275,-0.250854 0.129112,-0.09977 0.19409,-0.237753 0.19409,-0.413818 0,-0.234753 -0.09746,-0.406681 -0.291131,-0.518188 -0.193678,-0.111508 -0.492272,-0.168458 -0.897225,-0.168458 -0.305175,0 -0.628978,0.04235 -0.972281,0.124513 -0.343331,0.08216 -0.695587,0.202986 -1.056525,0.36438 v -1.389771 c 0.407888,-0.108574 0.801384,-0.190711 1.182863,-0.243531 0.381478,-0.05575 0.754181,-0.0824 1.115109,-0.0824 z m -16.7321719,0.11902 h 1.6955529 v 2.503052 h 2.499394 v -2.503052 h 1.695553 V 28.79657 H 13.067368 V 26.009705 H 10.567974 V 28.79657 H 8.8724211 Z m 19.8779249,0 h 6.057131 v 1.279907 h -2.182612 v 5.291747 h -1.695563 v -5.291747 h -2.178956 z m 6.941531,0 h 1.695553 v 6.571654 h -1.695553 z m 2.579953,0 h 1.966556 l 2.444457,2.398681 v -2.398681 h 1.693725 v 6.571654 h -1.693725 v -2.589111 l -2.614744,2.589111 h -2.122191 l 3.489985,-3.460693 z m 10.453491,0 h 2.589112 V 28.79657 H 49.61888 v -2.488403 h -0.479737 c -0.275832,0 -0.496688,0.06096 -0.661013,0.181275 -0.167259,0.120311 -0.331162,0.345173 -0.492553,0.673828 l -0.800175,1.6333 h -1.805419 l 0.921028,-1.867675 c 0.1878,-0.37854 0.373604,-0.659248 0.558469,-0.844116 0.181931,-0.187803 0.388903,-0.307901 0.620728,-0.360718 -0.422559,-0.132048 -0.738309,-0.338295 -0.946659,-0.617066 -0.211275,-0.278769 -0.316772,-0.635042 -0.316772,-1.069336 0,-0.627964 0.202959,-1.086445 0.607913,-1.376953 0.402018,-0.290507 1.034981,-0.43579 1.900631,-0.43579 z m 4.248047,0 h 1.693725 v 3.938599 c 0,0.542865 0.09017,0.931628 0.269165,1.166381 0.176072,0.231819 0.466631,0.3479 0.871585,0.3479 0.402018,0 0.692587,-0.116081 0.871584,-0.3479 0.176062,-0.234753 0.263672,-0.623516 0.263672,-1.166381 v -3.938599 h 1.695553 v 3.938599 c 0,0.930207 -0.234741,1.623412 -0.701288,2.078246 -0.466575,0.454834 -1.17584,0.681153 -2.129521,0.681153 -0.956616,0 -1.668441,-0.226319 -2.135007,-0.681153 -0.466575,-0.454834 -0.699468,-1.148039 -0.699468,-2.078246 z m 6.536868,0 h 6.055294 v 1.279907 h -2.182613 v 5.291747 h -1.693725 v -5.291747 h -2.178956 z m -10.60364,1.226806 c -0.35506,0 -0.609132,0.06498 -0.761719,0.194092 -0.155522,0.129115 -0.234375,0.34339 -0.234375,0.642701 0,0.302242 0.07885,0.519806 0.234375,0.651855 0.152587,0.132048 0.406659,0.197754 0.761719,0.197754 h 0.712284 v -1.686402 z m 9.270628,7.463379 1.699219,0.50354 C 56.925811,41.379848 47.82684,48.267516 37.438702,48.403501 27.050565,48.539494 17.77373,41.890625 14.563337,32.010072 l 1.686403,-0.545655 c 2.97284,9.149464 11.545668,15.292552 21.165159,15.166627 9.619491,-0.125925 18.030019,-6.491796 20.762325,-15.715943 z"
       id="path7552"
       inkscape:connector-curvature="0" />
    <circle
       style="opacity:0.91500005;fill:none;fill-opacity:1;stroke:#ff0000;stroke-width:0.35433072;stroke-miterlimit:4;stroke-dasharray:none;stroke-dashoffset:0;stroke-opacity:1"
       id="path7595"
       cx="37.219894"
       cy="24.680361"
       r="33.661419" />
  </g>
</svg>
