<?xml version="1.0" encoding="UTF-8" standalone="no"?>
<svg
   xmlns:dc="http://purl.org/dc/elements/1.1/"
   xmlns:cc="http://creativecommons.org/ns#"
   xmlns:rdf="http://www.w3.org/1999/02/22-rdf-syntax-ns#"
   xmlns:svg="http://www.w3.org/2000/svg"
   xmlns="http://www.w3.org/2000/svg"
   xmlns:sodipodi="http://sodipodi.sourceforge.net/DTD/sodipodi-0.dtd"
   xmlns:inkscape="http://www.inkscape.org/namespaces/inkscape"
   width="600mm"
   height="300mm"
   viewBox="24.035 -46 600 300"
   version="1.1"
   id="svg3074"
   sodipodi:docname="stempel_anton.svg"
   inkscape:version="0.92.2 5c3e80d, 2017-08-06">
  <metadata
     id="metadata3080">
    <rdf:RDF>
      <cc:Work
         rdf:about="">
        <dc:format>image/svg+xml</dc:format>
        <dc:type
           rdf:resource="http://purl.org/dc/dcmitype/StillImage" />
        <dc:title>svgOutput</dc:title>
      </cc:Work>
    </rdf:RDF>
  </metadata>
  <defs
     id="defs3078" />
  <sodipodi:namedview
     pagecolor="#ffffff"
     bordercolor="#666666"
     borderopacity="1"
     objecttolerance="10"
     gridtolerance="10"
     guidetolerance="10"
     inkscape:pageopacity="0"
     inkscape:pageshadow="2"
     inkscape:window-width="1280"
     inkscape:window-height="718"
     id="namedview3076"
     showgrid="false"
     inkscape:document-units="mm"
     inkscape:snap-global="false"
     inkscape:zoom="1.4074585"
     inkscape:cx="246.47459"
     inkscape:cy="1010.8055"
     inkscape:window-x="0"
     inkscape:window-y="1"
     inkscape:window-maximized="1"
     inkscape:current-layer="g3643" />
  <title
     id="title3068">svgOutput</title>
  <desc
     id="desc3070">made with tinkercad</desc>
  <g
     id="g3643"
     transform="translate(-5.8208333,-4.7625002)">
    <g
       id="g3730"
       transform="translate(-8.4666667,-4.2333335)">
      <path
         style="fill:none;stroke:#0000ff;stroke-width:0.00863165mm"
         inkscape:connector-curvature="0"
         id="path3625"
         d="M 127.15861,-34.049902 V -27.6081 -3.8995435 L 75.366082,-9.078794 41.705226,-12.44488 40.842061,-12.50099 v -0.03021 -12.887055 -0.03021 l 0.863165,-0.05611 21.03534,-2.103533 z" />
      <path
         inkscape:connector-curvature="0"
         id="rect3668"
         d="m 52.937111,-24.655254 v 11.361063 h 67.693539 v -11.361063 z m 7.454842,2.537313 h 4.766117 v 1.646927 h -1.352888 v 4.591451 h -2.060856 v -4.591451 h -1.352373 z m 5.359879,0 h 1.933215 v 2.25981 h 0.294556 v -0.763778 h 0.788066 v -0.732255 h 0.740006 v -0.763777 h 2.037085 v 6.238378 h -1.989542 v -2.25981 h -0.294556 v 0.763778 h -0.787548 v 0.732255 h -0.788067 v 0.763777 h -1.933215 z m 6.435783,0 h 1.989027 v 2.25981 h 1.082103 v -2.25981 h 1.989542 v 6.238378 h -1.989542 v -2.25981 h -1.082103 v 2.25981 h -1.989027 z m 5.657019,0 h 4.718574 v 6.238378 h -4.718574 v -1.646927 h 2.657719 v -0.636654 h -2.657719 v -1.671216 h 2.657719 v -0.636654 h -2.657719 z m 7.889441,0 h 1.989027 v 6.238378 h -4.662765 v -1.646927 h 2.673738 z m 2.58589,0 h 4.718574 v 6.238378 h -4.718574 v -1.646927 h 2.657718 v -0.636654 h -2.657718 v -1.671216 h 2.657718 v -0.636654 h -2.657718 z m 11.203966,0 h 4.766629 v 6.238378 h -4.766629 v -2.968294 h 0.541049 v -0.294039 h -0.541049 z m 5.408459,0 h 4.76663 v 6.238378 h -2.03709 v -1.671215 h -0.69246 v 1.671215 h -2.03708 z m -11.357967,0.04754 h 4.543909 v 0.763777 h 0.763778 v 4.710824 h -0.763778 v 0.763778 h -4.543909 v -2.800863 h 1.647444 v 1.130164 h 1.599388 v -2.920236 h -3.246832 z m -35.411791,0.390157 h 0.788583 v 2.544547 l -0.08165,1.387513 h -0.629418 l -0.07751,-1.387513 z m 55.560438,0 h 0.78909 v 2.544547 l -0.0816,1.387513 h -0.62941 l -0.078,-1.387513 z m -6.72983,1.034045 v 1.575615 h 0.64492 v -1.575615 z m -5.40845,0.198955 v 0.589111 h 0.64492 v -0.589111 z m 0,2.307869 v 0.588595 h 0.64492 v -0.588595 z m -43.422158,1.27279 h 0.788583 v 0.98702 h -0.788583 z m 55.560438,0 h 0.78909 v 0.98702 h -0.78909 z"
         style="opacity:1;fill:#ff0000;fill-opacity:1;stroke:#ff0000;stroke-width:0.42808646;stroke-miterlimit:4;stroke-dasharray:none;stroke-dashoffset:0;stroke-opacity:1" />
    </g>
  </g>
</svg>
